<svg width="18" height="18" viewBox="0 0 18 18" fill="none" xmlns="http://www.w3.org/2000/svg">
<path d="M17.3331 13.6027L17.3331 17.058L6.20592 17.058L6.20592 13.6027L17.3331 13.6027ZM4.68806 15.3322C4.68806 16.4371 3.77288 17.3333 2.66797 17.3333C2.13724 17.3333 1.62825 17.1225 1.25297 16.7472C0.877686 16.3719 0.666855 15.8629 0.666855 15.3322C0.666855 14.8015 0.877686 14.2925 1.25297 13.9172C1.62825 13.5419 2.13724 13.3311 2.66797 13.3311C3.77288 13.3311 4.68806 14.2277 4.68806 15.3322ZM17.3331 0.670364L17.3331 4.11828L11.9165 4.11828C10.6256 4.11828 8.97005 4.14432 8.97005 5.91479C8.97005 7.71129 10.3726 7.98659 11.8235 7.98659L17.3331 7.98658L17.3331 11.4382L6.20592 11.4382L6.20592 8.12423L7.72377 8.12423L7.72377 8.07587C6.84952 7.61456 5.9269 6.4877 5.9269 4.80653C5.9269 1.3095 8.22973 0.666645 11.2208 0.666645L17.3331 0.666644L17.3331 0.670364Z" fill="white"/>
</svg>
