<svg width="18" height="10" viewBox="0 0 18 10" fill="none" xmlns="http://www.w3.org/2000/svg">
<path d="M16.3014 0.123391C16.7734 0.566099 17.3333 1.751 17.3333 3.29396C17.3333 7.22626 14.4427 8.07912 12.7565 8.07912L8.06901 8.07912L8.06901 9.62535C8.06901 9.80438 7.92252 9.95087 7.74349 9.95087L5.52995 9.95087C5.29557 9.95087 5.08724 9.80438 5.00911 9.58303C4.29948 7.5648 2.53515 6.93003 1.19726 6.83889C0.83919 6.81285 0.666664 6.6273 0.666664 6.3148L0.666664 4.00686C0.666664 3.82782 0.813148 3.68133 0.992185 3.68133L4.74218 3.68133L4.74218 0.979511C4.74218 0.800475 4.88541 0.653991 5.06445 0.653991L7.72396 0.65399C7.90299 0.65399 8.04948 0.800475 8.04948 0.979511L8.04948 3.69436L12.3854 3.69435C13.4987 3.69435 14.1302 2.92287 13.5508 1.48081C13.4889 1.32456 13.4466 1.18784 13.4792 1.0674C13.5085 0.95347 13.5898 0.8786 13.7363 0.826516L15.8294 0.11037C15.9922 0.0517762 16.1745 0.00294904 16.3014 0.123391Z" fill="white"/>
</svg>
