<svg width="15" height="15" viewBox="0 0 15 15" fill="none" xmlns="http://www.w3.org/2000/svg">
<path fill-rule="evenodd" clip-rule="evenodd" d="M10.0181 9.45665H10.6435L14.0081 12.8292C14.3327 13.1537 14.3327 13.6762 14.0081 14.0008L14.0002 14.0087C13.6756 14.3333 13.1531 14.3333 12.8285 14.0087L9.45601 10.6442V10.0187L9.24226 9.79707C8.13393 10.7471 6.62185 11.2379 5.01476 10.9687C2.81393 10.5967 1.05643 8.75999 0.787264 6.54332C0.383514 3.19457 3.19393 0.376238 6.54268 0.787904C8.75935 1.05707 10.596 2.81457 10.9681 5.0154C11.2373 6.62249 10.7464 8.13457 9.79643 9.2429L10.0181 9.45665ZM2.33102 5.89416C2.33102 7.86541 3.92227 9.45666 5.89352 9.45666C7.86477 9.45666 9.45602 7.86541 9.45602 5.89416C9.45602 3.9229 7.86477 2.33165 5.89352 2.33165C3.92227 2.33165 2.33102 3.9229 2.33102 5.89416Z" fill="white"/>
</svg>
